HIERARCHY
ROOT hip
{
	OFFSET 0.000000 0.000000 0.000000
	CHANNELS 6 Xposition Yposition Zposition Xrotation Zrotation Yrotation 
	JOINT abdomen
	{
		OFFSET 0.000000 3.422050 0.000000
		CHANNELS 3 Xrotation Zrotation Yrotation 
		JOINT chest
		{
			OFFSET 0.000000 8.486693 -0.6844110
			CHANNELS 3 Xrotation Zrotation Yrotation 
			JOINT neck
			{
				OFFSET 0.000000 10.26616 -0.2737640
				CHANNELS 3 Xrotation Zrotation Yrotation 
				JOINT head
				{
					OFFSET 0.000000 3.148285 0.000000
					CHANNELS 3 Xrotation Zrotation Yrotation 
					End Site
					{
						OFFSET 0.000000 3.148289 0.000000
					}
				}
			}
			JOINT lCollar
			{
				OFFSET 3.422053 6.707223 -0.8212930
				CHANNELS 3 Yrotation Zrotation Xrotation 
				JOINT lShldr
				{
					OFFSET 3.285171 0.000000 0.000000
					CHANNELS 3 Zrotation Yrotation Xrotation 
					JOINT lForeArm
					{
						OFFSET 10.12928 0.000000 0.000000
						CHANNELS 3 Yrotation Zrotation Xrotation 
						JOINT lHand
						{
							OFFSET 8.486692 0.000000 0.000000
							CHANNELS 3 Zrotation Yrotation Xrotation 
							End Site
							{
								OFFSET 4.106464 0.000000 0.000000
							}
						}
					}
				}
			}
			JOINT rCollar
			{
				OFFSET -3.558935 6.707223 -0.8212930
				CHANNELS 3 Yrotation Zrotation Xrotation 
				JOINT rShldr
				{
					OFFSET -3.148289 0.000000 0.000000
					CHANNELS 3 Zrotation Yrotation Xrotation 
					JOINT rForeArm
					{
						OFFSET -10.26616 0.000000 0.000000
						CHANNELS 3 Yrotation Zrotation Xrotation 
						JOINT rHand
						{
							OFFSET -8.349810 0.000000 0.000000
							CHANNELS 3 Zrotation Yrotation Xrotation 
							End Site
							{
								OFFSET -4.106464 0.000000 0.000000
							}
						}
					}
				}
			}
		}
	}
	JOINT lThigh
	{
		OFFSET 5.338403 -1.642589 1.368821
		CHANNELS 3 Xrotation Zrotation Yrotation 
		JOINT lShin
		{
			OFFSET -2.053232 -20.12167 0.000000
			CHANNELS 3 Xrotation Zrotation Yrotation 
			JOINT lFoot
			{
				OFFSET 0.000000 -19.30038 -1.231939
				CHANNELS 3 Xrotation Yrotation Zrotation 
				End Site
				{
					OFFSET 0.000000 -2.463878 4.653993
				}
			}
		}
	}
	JOINT rThigh
	{
		OFFSET -5.338403 -1.642589 1.368821
		CHANNELS 3 Xrotation Zrotation Yrotation 
		JOINT rShin
		{
			OFFSET 2.053232 -20.12167 0.000000
			CHANNELS 3 Xrotation Zrotation Yrotation 
			JOINT rFoot
			{
				OFFSET 0.000000 -19.30038 -1.231939
				CHANNELS 3 Xrotation Yrotation Zrotation 
				End Site
				{
					OFFSET 0.000000 -2.463878 4.653993
				}
			}
		}
	}
}
MOTION
Frames:	18
Frame Time:	0.03333333
0.000000 43.52850 25.00000 0.000000 0.000000 0.000000 0.000000 0.000000 15.00000 0.000000 -4.000000 15.00000 0.000000 0.000000 0.000000 0.000000 -20.00000 -28.00000 0.000000 0.000000 0.000000 -72.00000 23.00000 0.000000 -42.00000 0.000000 0.000000 0.000000 0.000000 0.000000 15.00000 0.000000 0.000000 72.00000 0.000000 0.000000 0.000000 0.000000 0.000000 0.000000 0.000000 0.000000 0.000000 10.00000 0.000000 0.000000 -5.000000 0.000000 0.000000 0.000000 0.000000 0.000000 -10.00000 0.000000 16.00000 5.000000 0.000000 -15.00000 0.000000 0.000000 
0.000000 43.52850 25.00000 0.000000 0.000000 0.000000 0.000000 0.000000 15.00000 0.000000 -3.000000 15.00000 0.000000 0.000000 0.000000 0.000000 -20.00000 -28.00000 0.000000 0.000000 0.000000 -72.00000 23.00000 0.000000 -42.00000 0.000000 0.000000 0.000000 0.000000 0.000000 15.00000 0.000000 0.000000 72.00000 0.000000 0.000000 0.000000 0.000000 0.000000 0.000000 0.000000 0.000000 0.000000 10.00000 0.000000 0.000000 -5.000000 0.000000 0.000000 0.000000 0.000000 0.000000 -10.00000 0.000000 16.00000 5.000000 0.000000 -15.00000 0.000000 0.000000 
0.000000 43.52850 25.00000 0.000000 0.000000 0.000000 0.000000 0.000000 15.00000 0.000000 -2.000000 15.00000 0.000000 0.000000 0.000000 0.000000 -20.00000 -28.00000 0.000000 0.000000 0.000000 -72.00000 23.00000 0.000000 -42.00000 0.000000 0.000000 0.000000 0.000000 0.000000 15.00000 0.000000 0.000000 72.00000 0.000000 0.000000 0.000000 0.000000 0.000000 0.000000 0.000000 0.000000 0.000000 10.00000 0.000000 0.000000 -5.000000 0.000000 0.000000 0.000000 0.000000 0.000000 -10.00000 0.000000 16.00000 5.000000 0.000000 -15.00000 0.000000 0.000000 
0.000000 43.52850 25.00000 0.000000 0.000000 0.000000 0.000000 0.000000 15.00000 0.000000 -1.000000 15.00000 0.000000 0.000000 0.000000 0.000000 -20.00000 -28.00000 0.000000 0.000000 0.000000 -72.00000 23.00000 0.000000 -42.00000 0.000000 0.000000 0.000000 0.000000 0.000000 15.00000 0.000000 0.000000 72.00000 0.000000 0.000000 0.000000 0.000000 0.000000 0.000000 0.000000 0.000000 0.000000 10.00000 0.000000 0.000000 -5.000000 0.000000 0.000000 0.000000 0.000000 0.000000 -10.00000 0.000000 16.00000 5.000000 0.000000 -15.00000 0.000000 0.000000 
0.000000 43.52850 25.00000 0.000000 0.000000 0.000000 0.000000 0.000000 15.00000 0.000000 0.000000 15.00000 0.000000 0.000000 0.000000 0.000000 -20.00000 -28.00000 0.000000 0.000000 0.000000 -72.00000 23.00000 0.000000 -42.00000 0.000000 0.000000 0.000000 0.000000 0.000000 15.00000 0.000000 0.000000 72.00000 0.000000 0.000000 0.000000 0.000000 0.000000 0.000000 0.000000 0.000000 0.000000 10.00000 0.000000 0.000000 -5.000000 0.000000 0.000000 0.000000 0.000000 0.000000 -10.00000 0.000000 16.00000 5.000000 0.000000 -15.00000 0.000000 0.000000 
0.000000 43.52850 24.80000 0.000000 0.000000 0.000000 0.000000 0.000000 14.00000 0.000000 0.000000 14.00000 0.000000 0.000000 0.000000 0.000000 -18.86667 -26.00000 -0.5000000 0.000000 0.000000 -72.00000 22.23333 0.000000 -40.60000 0.000000 0.000000 0.000000 0.000000 0.000000 14.50000 0.000000 0.000000 72.00000 -0.7666667 0.000000 1.400000 0.000000 0.000000 0.000000 0.000000 0.000000 0.000000 10.00000 0.000000 0.5333334 -5.000000 0.000000 -0.5000000 0.000000 0.000000 0.000000 -10.00000 0.000000 15.46667 5.000000 0.000000 -14.50000 0.000000 0.000000 
0.000000 43.52850 24.60000 0.000000 0.000000 0.000000 0.000000 0.000000 13.00000 0.000000 0.000000 13.00000 0.000000 0.000000 0.000000 0.000000 -17.73333 -24.00000 -1.000000 0.000000 0.000000 -72.00000 21.46667 0.000000 -39.20000 0.000000 0.000000 0.000000 0.000000 0.000000 14.00000 0.000000 0.000000 72.00000 -1.533333 0.000000 2.800000 0.000000 0.000000 0.000000 0.000000 0.000000 0.000000 10.00000 0.000000 1.066667 -5.000000 0.000000 -1.000000 0.000000 0.000000 0.000000 -10.00000 0.000000 14.93333 5.000000 0.000000 -14.00000 0.000000 0.000000 
0.000000 43.52850 24.40000 0.000000 0.000000 0.000000 0.000000 0.000000 12.00000 0.000000 0.000000 12.00000 0.000000 0.000000 0.000000 0.000000 -16.60000 -22.00000 -1.500000 0.000000 0.000000 -72.00000 20.70000 0.000000 -37.80000 0.000000 0.000000 0.000000 0.000000 0.000000 13.50000 0.000000 0.000000 72.00000 -2.300000 0.000000 4.200000 0.000000 0.000000 0.000000 0.000000 0.000000 0.000000 10.00000 0.000000 1.600000 -5.000000 0.000000 -1.500000 0.000000 0.000000 0.000000 -10.00000 0.000000 14.40000 5.000000 0.000000 -13.50000 0.000000 0.000000 
0.000000 43.52850 24.20000 0.000000 0.000000 0.000000 0.000000 0.000000 11.00000 0.000000 0.000000 11.00000 0.000000 0.000000 0.000000 0.000000 -15.46667 -20.00000 -2.000000 0.000000 0.000000 -72.00000 19.93333 0.000000 -36.40000 0.000000 0.000000 0.000000 0.000000 0.000000 13.00000 0.000000 0.000000 72.00000 -3.066667 0.000000 5.600000 0.000000 0.000000 0.000000 0.000000 0.000000 0.000000 10.00000 0.000000 2.133333 -5.000000 0.000000 -2.000000 0.000000 0.000000 0.000000 -10.00000 0.000000 13.86667 5.000000 0.000000 -13.00000 0.000000 0.000000 
0.000000 43.52850 24.00000 0.000000 0.000000 0.000000 0.000000 0.000000 10.00000 0.000000 0.000000 10.00000 0.000000 0.000000 0.000000 0.000000 -14.33333 -18.00000 -2.500000 0.000000 0.000000 -72.00000 19.16667 0.000000 -35.00000 0.000000 0.000000 0.000000 0.000000 0.000000 12.50000 0.000000 0.000000 72.00000 -3.833333 0.000000 7.000000 0.000000 0.000000 0.000000 0.000000 0.000000 0.000000 10.00000 0.000000 2.666667 -5.000000 0.000000 -2.500000 0.000000 0.000000 0.000000 -10.00000 0.000000 13.33333 5.000000 0.000000 -12.50000 0.000000 0.000000 
0.000000 43.52850 23.80000 0.000000 0.000000 0.000000 0.000000 0.000000 9.000000 0.000000 0.000000 9.000000 0.000000 0.000000 0.000000 0.000000 -13.20000 -16.00000 -3.000000 0.000000 0.000000 -72.00000 18.40000 0.000000 -33.60000 0.000000 0.000000 0.000000 0.000000 0.000000 12.00000 0.000000 0.000000 72.00000 -4.600000 0.000000 8.400000 0.000000 0.000000 0.000000 0.000000 0.000000 0.000000 10.00000 0.000000 3.200000 -5.000000 0.000000 -3.000000 0.000000 0.000000 0.000000 -10.00000 0.000000 12.80000 5.000000 0.000000 -12.00000 0.000000 0.000000 
0.000000 43.52850 23.60000 0.000000 0.000000 0.000000 0.000000 0.000000 8.000000 0.000000 0.000000 8.000000 0.000000 0.000000 0.000000 0.000000 -12.06667 -14.00000 -3.500000 0.000000 0.000000 -72.00000 17.63333 0.000000 -32.20000 0.000000 0.000000 0.000000 0.000000 0.000000 11.50000 0.000000 0.000000 72.00000 -5.366667 0.000000 9.800000 0.000000 0.000000 0.000000 0.000000 0.000000 0.000000 10.00000 0.000000 3.733333 -5.000000 0.000000 -3.500000 0.000000 0.000000 0.000000 -10.00000 0.000000 12.26667 5.000000 0.000000 -11.50000 0.000000 0.000000 
0.000000 43.52850 23.40000 0.000000 0.000000 0.000000 0.000000 0.000000 7.000000 0.000000 0.000000 7.000000 0.000000 0.000000 0.000000 0.000000 -10.93333 -12.00000 -4.000000 0.000000 0.000000 -72.00000 16.86667 0.000000 -30.80000 0.000000 0.000000 0.000000 0.000000 0.000000 11.00000 0.000000 0.000000 72.00000 -6.133333 0.000000 11.20000 0.000000 0.000000 0.000000 0.000000 0.000000 0.000000 10.00000 0.000000 4.266667 -5.000000 0.000000 -4.000000 0.000000 0.000000 0.000000 -10.00000 0.000000 11.73333 5.000000 0.000000 -11.00000 0.000000 0.000000 
0.000000 43.52850 23.20000 0.000000 0.000000 0.000000 0.000000 0.000000 6.000000 0.000000 0.000000 6.000000 0.000000 0.000000 0.000000 0.000000 -9.800000 -10.00000 -4.500000 0.000000 0.000000 -72.00000 16.10000 0.000000 -29.40000 0.000000 0.000000 0.000000 0.000000 0.000000 10.50000 0.000000 0.000000 72.00000 -6.900000 0.000000 12.60000 0.000000 0.000000 0.000000 0.000000 0.000000 0.000000 10.00000 0.000000 4.800000 -5.000000 0.000000 -4.500000 0.000000 0.000000 0.000000 -10.00000 0.000000 11.20000 5.000000 0.000000 -10.50000 0.000000 0.000000 
0.000000 43.52850 23.00000 0.000000 0.000000 0.000000 0.000000 0.000000 5.000000 0.000000 0.000000 5.000000 0.000000 0.000000 0.000000 0.000000 -8.666667 -8.000000 -5.000000 0.000000 0.000000 -72.00000 15.33333 0.000000 -28.00000 0.000000 0.000000 0.000000 0.000000 0.000000 10.00000 0.000000 0.000000 72.00000 -7.666667 0.000000 14.00000 0.000000 0.000000 0.000000 0.000000 0.000000 0.000000 10.00000 0.000000 5.333333 -5.000000 0.000000 -5.000000 0.000000 0.000000 0.000000 -10.00000 0.000000 10.66667 5.000000 0.000000 -10.00000 0.000000 0.000000 
0.000000 43.52850 22.80000 0.000000 0.000000 0.000000 0.000000 0.000000 4.000000 0.000000 0.000000 4.000000 0.000000 0.000000 0.000000 0.000000 -7.533333 -6.000000 -5.500000 0.000000 0.000000 -72.00000 14.56667 0.000000 -26.60000 0.000000 0.000000 0.000000 0.000000 0.000000 9.500000 0.000000 0.000000 72.00000 -8.433333 0.000000 15.40000 0.000000 0.000000 0.000000 0.000000 0.000000 0.000000 10.00000 0.000000 5.866667 -5.000000 0.000000 -5.500000 0.000000 0.000000 0.000000 -10.00000 0.000000 10.13333 5.000000 0.000000 -9.500000 0.000000 0.000000 
0.000000 43.52850 22.60000 0.000000 0.000000 0.000000 0.000000 0.000000 3.000000 0.000000 0.000000 3.000000 0.000000 0.000000 0.000000 0.000000 -6.400000 -4.000000 -6.000000 0.000000 0.000000 -72.00000 13.80000 0.000000 -25.20000 0.000000 0.000000 0.000000 0.000000 0.000000 9.000000 0.000000 0.000000 72.00000 -9.200000 0.000000 16.80000 0.000000 0.000000 0.000000 0.000000 0.000000 0.000000 10.00000 0.000000 6.400000 -5.000000 0.000000 -6.000000 0.000000 0.000000 0.000000 -10.00000 0.000000 9.600000 5.000000 0.000000 -9.000000 0.000000 0.000000 
0.000000 43.52850 22.40000 0.000000 0.000000 0.000000 0.000000 0.000000 2.000000 0.000000 0.000000 2.000000 0.000000 0.000000 0.000000 0.000000 -5.266667 -2.000000 -6.500000 0.000000 0.000000 -72.00000 13.03333 0.000000 -23.80000 0.000000 0.000000 0.000000 0.000000 0.000000 8.500000 0.000000 0.000000 72.00000 -9.966666 0.000000 18.20000 0.000000 0.000000 0.000000 0.000000 0.000000 0.000000 10.00000 0.000000 6.933333 -5.000000 0.000000 -6.500000 0.000000 0.000000 0.000000 -10.00000 0.000000 9.066667 5.000000 0.000000 -8.500000 0.000000 0.000000 
